<?xml version="1.0" encoding="UTF-8"?>
<!DOCTYPE svg PUBLIC "-//W3C//DTD SVG 1.1//EN" "http://www.w3.org/Graphics/SVG/1.1/DTD/svg11.dtd">
<svg xmlns="http://www.w3.org/2000/svg" version="1.1" width="4443px" height="1912px" style="shape-rendering:geometricPrecision; text-rendering:geometricPrecision; image-rendering:optimizeQuality; fill-rule:evenodd; clip-rule:evenodd" xmlns:xlink="http://www.w3.org/1999/xlink">
<g><path style="opacity:1" fill="#040a24" d="M -0.5,-0.5 C 1480.5,-0.5 2961.5,-0.5 4442.5,-0.5C 4442.5,636.833 4442.5,1274.17 4442.5,1911.5C 4084.83,1911.5 3727.17,1911.5 3369.5,1911.5C 3441.11,1867.35 3513.44,1824.19 3586.5,1782C 3597.83,1776.33 3609.17,1770.67 3620.5,1765C 3623.62,1762.59 3624.95,1759.43 3624.5,1755.5C 3675.85,1761.22 3725.85,1755.06 3774.5,1737C 3785.9,1733.22 3795.73,1727.06 3804,1718.5C 3810.18,1709.8 3813.85,1700.14 3815,1689.5C 3815.5,1679.51 3815.67,1669.51 3815.5,1659.5C 3810.72,1635.5 3803.72,1612 3794.5,1589C 3797.94,1581.28 3801.78,1573.78 3806,1566.5C 3809.1,1558.58 3807.6,1551.74 3801.5,1546C 3784.67,1531.75 3766.34,1519.75 3746.5,1510C 3747.13,1509.25 3747.63,1508.42 3748,1507.5C 3748.01,1450.91 3751.68,1394.57 3759,1338.5C 3759.38,1337.94 3759.88,1337.61 3760.5,1337.5C 3763.2,1337.53 3765.7,1336.87 3768,1335.5C 3787.33,1295.48 3810.66,1258.14 3838,1223.5C 3848.39,1213.11 3858.72,1202.78 3869,1192.5C 3870.86,1187.27 3869.02,1184.61 3863.5,1184.5C 3853.58,1188.92 3844.58,1194.75 3836.5,1202C 3827,1210.83 3817.5,1219.67 3808,1228.5C 3788.5,1248.49 3774.33,1271.82 3765.5,1298.5C 3776.59,1219.62 3797.76,1143.29 3829,1069.5C 3844.11,1034.59 3862.78,1001.92 3885,971.5C 3886,960.173 3880.84,955.339 3869.5,957C 3866.7,958.793 3864.2,960.96 3862,963.5C 3828.37,1011.1 3802.37,1062.76 3784,1118.5C 3743.11,1244.92 3723.61,1374.58 3725.5,1507.5C 3700.83,1509.32 3676.16,1511.15 3651.5,1513C 3634.48,1514.34 3618.15,1518.34 3602.5,1525C 3596.03,1529.61 3592.69,1535.94 3592.5,1544C 3593.54,1555.47 3597.87,1565.47 3605.5,1574C 3602.64,1575.36 3600.64,1577.53 3599.5,1580.5C 3566.23,1588.31 3535.56,1601.81 3507.5,1621C 3484.21,1640.01 3479.54,1662.84 3493.5,1689.5C 3480.22,1704.39 3480.22,1719.22 3493.5,1734C 3497.01,1736.25 3500.67,1738.25 3504.5,1740C 3523.55,1741.51 3542.21,1739.51 3560.5,1734C 3570.25,1730.64 3580.08,1727.47 3590,1724.5C 3590.83,1724.83 3591.67,1725.17 3592.5,1725.5C 3595.78,1733.28 3600.78,1739.78 3607.5,1745C 3578.05,1760.22 3549.05,1776.22 3520.5,1793C 3459.5,1829.16 3398.83,1865.83 3338.5,1903C 3326.15,1906.27 3313.82,1909.11 3301.5,1911.5C 3149.83,1911.5 2998.17,1911.5 2846.5,1911.5C 2971.7,1850.1 3088.03,1775.43 3195.5,1687.5C 3196.67,1677.18 3196.83,1666.85 3196,1656.5C 3107.02,1731.77 3011.19,1797.27 2908.5,1853C 2870.2,1873.37 2831.53,1892.87 2792.5,1911.5C 1861.5,1911.5 930.5,1911.5 -0.5,1911.5C -0.5,1274.17 -0.5,636.833 -0.5,-0.5 Z"/></g>
<g><path style="opacity:1" fill="#103486" d="M 3295.5,164.5 C 3353.02,161.779 3405.68,176.279 3453.5,208C 3472.78,221.611 3487.28,239.111 3497,260.5C 3499.69,268.642 3501.52,276.975 3502.5,285.5C 3520.11,293.606 3534.94,305.273 3547,320.5C 3586.44,370.479 3592.44,424.479 3565,482.5C 3554.74,504.699 3541.74,525.032 3526,543.5C 3525.21,511.426 3523.37,479.426 3520.5,447.5C 3511.84,446.175 3503.51,443.675 3495.5,440C 3477.48,431.574 3459.65,422.741 3442,413.5C 3406.94,440.939 3367.44,459.106 3323.5,468C 3293.22,471.245 3264.22,466.579 3236.5,454C 3214.94,443.643 3194.77,431.143 3176,416.5C 3156.38,444.416 3142.71,475.082 3135,508.5C 3131.91,525.551 3128.58,542.551 3125,559.5C 3115.12,551.927 3103.95,547.593 3091.5,546.5C 3082.57,547.092 3075.57,551.092 3070.5,558.5C 3048.68,508.219 3034.51,455.886 3028,401.5C 3027.33,387.833 3027.33,374.167 3028,360.5C 3030.64,334.033 3042.48,312.866 3063.5,297C 3059.35,290.844 3055.18,284.677 3051,278.5C 3050.33,277.5 3050.33,276.5 3051,275.5C 3099.07,243.704 3149.57,215.871 3202.5,192C 3232.41,178.635 3263.41,169.468 3295.5,164.5 Z"/></g>
<g><path style="opacity:1" fill="#040b25" d="M 3347.5,182.5 C 3355.29,182.707 3362.12,185.374 3368,190.5C 3369.88,200.57 3365.72,205.737 3355.5,206C 3353.17,206.667 3350.83,206.667 3348.5,206C 3344.06,203.443 3339.39,201.443 3334.5,200C 3329.36,195.111 3329.36,190.111 3334.5,185C 3338.17,184.667 3341.83,184.333 3345.5,184C 3346.42,183.722 3347.08,183.222 3347.5,182.5 Z"/></g>
<g><path style="opacity:1" fill="#040a24" d="M 3267.5,186.5 C 3278.17,186.333 3288.84,186.5 3299.5,187C 3304.47,190.531 3304.8,194.531 3300.5,199C 3265.44,207.907 3230.78,218.24 3196.5,230C 3184.95,235.275 3173.28,240.275 3161.5,245C 3155,245.812 3152.83,242.979 3155,236.5C 3157.59,234.451 3160.09,232.285 3162.5,230C 3174.5,223 3186.5,216 3198.5,209C 3220.1,196.742 3243.1,189.242 3267.5,186.5 Z"/></g>
<g><path style="opacity:1" fill="#040a25" d="M 3052.5,350.5 C 3054.53,350.338 3056.53,350.505 3058.5,351C 3059.13,351.75 3059.63,352.584 3060,353.5C 3058.8,366.443 3057.63,379.443 3056.5,392.5C 3058.52,418.265 3063.02,443.598 3070,468.5C 3075.2,481.585 3079.7,494.919 3083.5,508.5C 3083.13,514.369 3080.13,516.536 3074.5,515C 3038.4,469.319 3028.9,418.485 3046,362.5C 3047.4,358.025 3049.57,354.025 3052.5,350.5 Z"/></g>
<g><path style="opacity:1" fill="#103485" d="M 3429.5,516.5 C 3444.85,515.502 3459.85,517.335 3474.5,522C 3484.06,524.498 3486.06,529.831 3480.5,538C 3458.17,538.686 3435.83,539.353 3413.5,540C 3406.66,542.463 3399.66,543.796 3392.5,544C 3389.65,541.441 3388.82,538.274 3390,534.5C 3391.93,533.12 3393.76,531.62 3395.5,530C 3406.67,524.784 3418,520.284 3429.5,516.5 Z"/></g>
<g><path style="opacity:1" fill="#103485" d="M 3245.5,527.5 C 3267.54,526.013 3288.21,530.513 3307.5,541C 3310.37,544.943 3310.03,548.61 3306.5,552C 3303.17,552.167 3299.83,552.333 3296.5,552.5C 3273.52,550.789 3250.52,550.289 3227.5,551C 3220.12,553.191 3213.12,556.191 3206.5,560C 3199.95,560.786 3197.12,557.953 3198,551.5C 3205.67,542.734 3215.17,536.568 3226.5,533C 3232.91,530.985 3239.24,529.152 3245.5,527.5 Z"/></g>
<g><path style="opacity:1" fill="#103485" d="M 3413.5,550.5 C 3426.63,548.813 3436.13,553.813 3442,565.5C 3445.23,578.471 3441.07,588.304 3429.5,595C 3410.28,599.895 3399.28,592.561 3396.5,573C 3397.45,561.891 3403.11,554.391 3413.5,550.5 Z"/></g>
<g><path style="opacity:1" fill="#103485" d="M 3256.5,555.5 C 3277.1,554.271 3286.94,563.937 3286,584.5C 3280.24,598.8 3269.74,604.3 3254.5,601C 3241.64,594.086 3237.14,583.586 3241,569.5C 3244.49,562.834 3249.66,558.168 3256.5,555.5 Z"/></g>
<g><path style="opacity:1" fill="#103485" d="M 3356.5,577.5 C 3359.34,578.172 3361.84,579.505 3364,581.5C 3374.01,611.883 3381.68,642.883 3387,674.5C 3391.22,691.05 3387.05,704.883 3374.5,716C 3360.98,724.424 3346.65,731.258 3331.5,736.5C 3326.75,735.357 3325.25,732.357 3327,727.5C 3337.06,719.216 3347.89,712.049 3359.5,706C 3365.52,701.272 3368.02,695.105 3367,687.5C 3364.98,679.48 3362.98,671.48 3361,663.5C 3358.85,647.798 3356.52,632.131 3354,616.5C 3352.78,604.853 3352.45,593.186 3353,581.5C 3354.1,580.051 3355.27,578.718 3356.5,577.5 Z"/></g>
<g><path style="opacity:1" fill="#0963fb" d="M 3089.5,721.5 C 3090.69,725.389 3090.53,729.389 3089,733.5C 3045.36,833.569 3029.69,937.902 3042,1046.5C 3060.08,1025.74 3080.58,1007.91 3103.5,993C 3118.27,984.022 3134.27,979.188 3151.5,978.5C 3158.02,978.337 3164.35,979.337 3170.5,981.5C 3171.17,981.167 3171.83,980.833 3172.5,980.5C 3126.76,912.956 3098.76,838.623 3088.5,757.5C 3088.67,753.833 3088.83,750.167 3089,746.5C 3089.42,745.328 3090.09,744.328 3091,743.5C 3094.48,749.457 3097.14,755.791 3099,762.5C 3113.42,831.977 3139.42,896.643 3177,956.5C 3199.62,988.79 3226.12,1017.62 3256.5,1043C 3267.01,1050.09 3277.34,1057.42 3287.5,1065C 3298.41,1070.71 3309.25,1076.54 3320,1082.5C 3380.27,1049.91 3430.27,1005.58 3470,949.5C 3497.67,907.176 3514.67,860.842 3521,810.5C 3522.36,792.145 3523.69,773.811 3525,755.5C 3525.26,753.349 3526.26,751.682 3528,750.5C 3530.99,751.276 3533.83,752.443 3536.5,754C 3565.99,786.8 3586.83,824.633 3599,867.5C 3616.47,927.423 3613.8,986.423 3591,1044.5C 3584.59,1051.11 3578.26,1051.11 3572,1044.5C 3569,1032.19 3566,1019.85 3563,1007.5C 3558.33,993.161 3551.33,980.161 3542,968.5C 3523.18,953.206 3503.68,952.539 3483.5,966.5C 3442.03,1027.48 3388.36,1074.31 3322.5,1107C 3320.5,1107.67 3318.5,1107.67 3316.5,1107C 3276.62,1086.47 3241.12,1059.97 3210,1027.5C 3201.83,1018 3193.67,1008.5 3185.5,999C 3176.72,996.055 3167.72,994.222 3158.5,993.5C 3141.72,994.371 3126.39,999.538 3112.5,1009C 3083.33,1030.17 3058.99,1055.84 3039.5,1086C 3032.1,1090.38 3026.27,1088.88 3022,1081.5C 3006.69,971.856 3020.03,865.856 3062,763.5C 3067.49,751.85 3073.49,740.517 3080,729.5C 3082.77,726.22 3085.94,723.554 3089.5,721.5 Z"/></g>
<g><path style="opacity:1" fill="#0963fb" d="M 3143.5,724.5 C 3147.3,725.779 3150.47,728.112 3153,731.5C 3173.66,771.645 3199.82,807.812 3231.5,840C 3253.02,859.769 3277.69,874.436 3305.5,884C 3369.63,899.961 3421.46,881.794 3461,829.5C 3474.07,810.039 3485.07,789.373 3494,767.5C 3496.02,765.316 3498.18,763.316 3500.5,761.5C 3503.36,765.733 3504.2,770.4 3503,775.5C 3493,818.122 3471.5,853.622 3438.5,882C 3395.39,912.908 3348.39,920.574 3297.5,905C 3264.99,892.657 3237.15,873.49 3214,847.5C 3184.97,815.469 3161.97,779.469 3145,739.5C 3143.75,734.58 3143.25,729.58 3143.5,724.5 Z"/></g>
<g><path style="opacity:1" fill="#103485" d="M 3414.5,746.5 C 3419.16,745.804 3423.33,746.804 3427,749.5C 3428.12,752.956 3427.29,755.79 3424.5,758C 3398.5,774.211 3370.17,780.544 3339.5,777C 3324.63,774.523 3309.97,771.189 3295.5,767C 3292.83,765.667 3290.17,764.333 3287.5,763C 3284.39,757.08 3286.22,753.58 3293,752.5C 3300.55,753.449 3308.05,754.616 3315.5,756C 3324.83,756.667 3334.17,756.667 3343.5,756C 3360.8,754.182 3378.14,752.515 3395.5,751C 3402.06,749.915 3408.39,748.415 3414.5,746.5 Z"/></g>
<g><path style="opacity:1" fill="#040a25" d="M 3536.5,771.5 C 3553.78,798.399 3567.61,827.066 3578,857.5C 3588.82,896.253 3591.49,935.586 3586,975.5C 3584.83,982.03 3583.16,988.363 3581,994.5C 3573.29,974.474 3560.79,958.307 3543.5,946C 3528.84,938.545 3513.84,937.711 3498.5,943.5C 3498.17,943.167 3497.83,942.833 3497.5,942.5C 3526.1,891.257 3538.77,836.257 3535.5,777.5C 3535.21,775.265 3535.54,773.265 3536.5,771.5 Z"/></g>
<g><path style="opacity:1" fill="#073ea1" d="M 3536.5,771.5 C 3535.54,773.265 3535.21,775.265 3535.5,777.5C 3534.37,775.034 3534.2,772.367 3535,769.5C 3535.72,770.044 3536.22,770.711 3536.5,771.5 Z"/></g>
<g><path style="opacity:1" fill="#103485" d="M 2740.5,907.5 C 2743.19,907.336 2745.85,907.503 2748.5,908C 2777.47,922.292 2801.63,942.458 2821,968.5C 2854.49,1014.9 2878.83,1065.9 2894,1121.5C 2912.21,1186.95 2923.54,1253.62 2928,1321.5C 2931.54,1371.11 2933.04,1420.77 2932.5,1470.5C 2940.71,1470.18 2948.71,1470.68 2956.5,1472C 3034.54,1432.15 3116.21,1402.32 3201.5,1382.5C 3201.5,1390.5 3201.5,1398.5 3201.5,1406.5C 3145.27,1419.44 3090.6,1437.28 3037.5,1460C 2920.31,1511.39 2810.64,1574.73 2708.5,1650C 2697.03,1651.28 2692.19,1646.11 2694,1634.5C 2695.12,1632.38 2696.62,1630.54 2698.5,1629C 2764.96,1580.25 2834.63,1536.25 2907.5,1497C 2886.58,1499.73 2865.92,1504.06 2845.5,1510C 2818.23,1518.48 2791.23,1527.65 2764.5,1537.5C 2755.99,1535.48 2752.49,1530.15 2754,1521.5C 2755.12,1519.38 2756.62,1517.54 2758.5,1516C 2806.69,1495.29 2856.69,1481.12 2908.5,1473.5C 2910.69,1385.61 2904.85,1298.27 2891,1211.5C 2881.41,1154.38 2864.74,1099.38 2841,1046.5C 2825.52,1013.71 2805.36,984.208 2780.5,958C 2766.99,945.16 2751.82,934.66 2735,926.5C 2730.48,918.266 2732.31,911.932 2740.5,907.5 Z"/></g>
<g><path style="opacity:1" fill="#103485" d="M 3765.5,1298.5 C 3761.67,1311.28 3760.01,1324.28 3760.5,1337.5C 3759.88,1337.61 3759.38,1337.94 3759,1338.5C 3751.68,1394.57 3748.01,1450.91 3748,1507.5C 3747.63,1508.42 3747.13,1509.25 3746.5,1510C 3766.34,1519.75 3784.67,1531.75 3801.5,1546C 3807.6,1551.74 3809.1,1558.58 3806,1566.5C 3801.78,1573.78 3797.94,1581.28 3794.5,1589C 3803.72,1612 3810.72,1635.5 3815.5,1659.5C 3815.67,1669.51 3815.5,1679.51 3815,1689.5C 3813.85,1700.14 3810.18,1709.8 3804,1718.5C 3795.73,1727.06 3785.9,1733.22 3774.5,1737C 3725.85,1755.06 3675.85,1761.22 3624.5,1755.5C 3624.95,1759.43 3623.62,1762.59 3620.5,1765C 3609.17,1770.67 3597.83,1776.33 3586.5,1782C 3513.44,1824.19 3441.11,1867.35 3369.5,1911.5C 3346.83,1911.5 3324.17,1911.5 3301.5,1911.5C 3313.82,1909.11 3326.15,1906.27 3338.5,1903C 3398.83,1865.83 3459.5,1829.16 3520.5,1793C 3549.05,1776.22 3578.05,1760.22 3607.5,1745C 3600.78,1739.78 3595.78,1733.28 3592.5,1725.5C 3591.67,1725.17 3590.83,1724.83 3590,1724.5C 3580.08,1727.47 3570.25,1730.64 3560.5,1734C 3542.21,1739.51 3523.55,1741.51 3504.5,1740C 3500.67,1738.25 3497.01,1736.25 3493.5,1734C 3480.22,1719.22 3480.22,1704.39 3493.5,1689.5C 3479.54,1662.84 3484.21,1640.01 3507.5,1621C 3535.56,1601.81 3566.23,1588.31 3599.5,1580.5C 3600.64,1577.53 3602.64,1575.36 3605.5,1574C 3597.87,1565.47 3593.54,1555.47 3592.5,1544C 3592.69,1535.94 3596.03,1529.61 3602.5,1525C 3618.15,1518.34 3634.48,1514.34 3651.5,1513C 3676.16,1511.15 3700.83,1509.32 3725.5,1507.5C 3723.61,1374.58 3743.11,1244.92 3784,1118.5C 3802.37,1062.76 3828.37,1011.1 3862,963.5C 3864.2,960.96 3866.7,958.793 3869.5,957C 3880.84,955.339 3886,960.173 3885,971.5C 3862.78,1001.92 3844.11,1034.59 3829,1069.5C 3797.76,1143.29 3776.59,1219.62 3765.5,1298.5 Z"/></g>
<g><path style="opacity:1" fill="#0963fb" d="M 2706.5,1124.5 C 2749.58,1134.37 2789.24,1151.87 2825.5,1177C 2855.18,1200.35 2878.68,1228.85 2896,1262.5C 2896.5,1265.53 2896.33,1268.53 2895.5,1271.5C 2892.35,1271.79 2889.35,1271.29 2886.5,1270C 2849.85,1224.67 2806.52,1187.34 2756.5,1158C 2740.07,1149.79 2723.41,1142.12 2706.5,1135C 2701.36,1131.22 2701.36,1127.72 2706.5,1124.5 Z"/></g>
<g><path style="opacity:1" fill="#0963fb" d="M 3760.5,1337.5 C 3760.01,1324.28 3761.67,1311.28 3765.5,1298.5C 3774.33,1271.82 3788.5,1248.49 3808,1228.5C 3817.5,1219.67 3827,1210.83 3836.5,1202C 3844.58,1194.75 3853.58,1188.92 3863.5,1184.5C 3869.02,1184.61 3870.86,1187.27 3869,1192.5C 3858.72,1202.78 3848.39,1213.11 3838,1223.5C 3810.66,1258.14 3787.33,1295.48 3768,1335.5C 3765.7,1336.87 3763.2,1337.53 3760.5,1337.5 Z"/></g>
<g><path style="opacity:1" fill="#0964fc" d="M 3695.5,1260.5 C 3712.85,1258.03 3721.01,1265.36 3720,1282.5C 3716.98,1290.44 3711.15,1294.61 3702.5,1295C 3540.5,1314.17 3378.5,1333.33 3216.5,1352.5C 3204.47,1350.13 3198.97,1342.8 3200,1330.5C 3202.17,1324.33 3206.33,1320.17 3212.5,1318C 3373.63,1298.82 3534.63,1279.66 3695.5,1260.5 Z"/></g>
<g><path style="opacity:1" fill="#0963fc" d="M 3457.5,1414.5 C 3480.84,1412.02 3492.68,1422.36 3493,1445.5C 3488.83,1460 3479.16,1467.33 3464,1467.5C 3442.26,1464.4 3433.92,1452.07 3439,1430.5C 3442.89,1422.48 3449.05,1417.15 3457.5,1414.5 Z"/></g>
<g><path style="opacity:1" fill="#040a24" d="M 3709.5,1524.5 C 3720.24,1524.07 3730.91,1524.57 3741.5,1526C 3759.43,1534.46 3775.43,1545.62 3789.5,1559.5C 3786.22,1566.41 3782.22,1572.75 3777.5,1578.5C 3722.71,1562.21 3667.38,1560.21 3611.5,1572.5C 3608.35,1563.39 3606.02,1554.05 3604.5,1544.5C 3604.35,1539.97 3606.35,1536.8 3610.5,1535C 3624.24,1531.29 3638.24,1528.95 3652.5,1528C 3671.63,1526.39 3690.63,1525.23 3709.5,1524.5 Z"/></g>
<g><path style="opacity:1" fill="#040a24" d="M 3606.5,1586.5 C 3647.64,1587.75 3688.81,1587.75 3730,1586.5C 3735.5,1586.67 3741,1586.83 3746.5,1587C 3756.44,1588.92 3766.44,1590.42 3776.5,1591.5C 3781.85,1606.89 3786.19,1622.56 3789.5,1638.5C 3771.9,1633.55 3753.9,1630.72 3735.5,1630C 3691.41,1628.08 3648.41,1634.08 3606.5,1648C 3574.26,1657.91 3542.93,1670.08 3512.5,1684.5C 3499.53,1664.51 3502.2,1647.01 3520.5,1632C 3544.5,1615 3570.5,1601.67 3598.5,1592C 3601.41,1590.39 3604.07,1588.56 3606.5,1586.5 Z"/></g>
<g><path style="opacity:1" fill="#103485" d="M 3815.5,1659.5 C 3814.88,1648.79 3819.88,1643.79 3830.5,1644.5C 3862.97,1647.38 3892.97,1657.55 3920.5,1675C 3934.13,1684.96 3945.3,1697.13 3954,1711.5C 3955.66,1722.84 3950.83,1728 3939.5,1727C 3937.7,1726.03 3936.03,1724.86 3934.5,1723.5C 3921.39,1703.09 3903.39,1688.59 3880.5,1680C 3861.41,1672.91 3841.74,1668.25 3821.5,1666C 3819.27,1663.94 3817.27,1661.77 3815.5,1659.5 Z"/></g>
<g><path style="opacity:1" fill="#040a24" d="M 3724.5,1649.5 C 3747.57,1649.2 3770.57,1650.2 3793.5,1652.5C 3794.31,1660.14 3794.65,1667.8 3794.5,1675.5C 3761.42,1681.17 3728.09,1684.34 3694.5,1685C 3672.86,1687.94 3651.2,1690.61 3629.5,1693C 3622.25,1694.12 3615.08,1695.62 3608,1697.5C 3605.21,1696.48 3602.38,1696.32 3599.5,1697C 3576.58,1706.98 3552.91,1714.65 3528.5,1720C 3521.83,1720.67 3515.17,1720.67 3508.5,1720C 3504.38,1717.25 3502.88,1713.42 3504,1708.5C 3506.67,1702.79 3510.5,1698.13 3515.5,1694.5C 3543.27,1685.63 3571.27,1677.47 3599.5,1670C 3640.95,1661.01 3682.61,1654.17 3724.5,1649.5 Z"/></g>
<g><path style="opacity:1" fill="#103485" d="M 2846.5,1911.5 C 2828.5,1911.5 2810.5,1911.5 2792.5,1911.5C 2831.53,1892.87 2870.2,1873.37 2908.5,1853C 3011.19,1797.27 3107.02,1731.77 3196,1656.5C 3196.83,1666.85 3196.67,1677.18 3195.5,1687.5C 3088.03,1775.43 2971.7,1850.1 2846.5,1911.5 Z"/></g>
<g><path style="opacity:1" fill="#040a24" d="M 3791.5,1689.5 C 3792.38,1689.37 3793.04,1689.7 3793.5,1690.5C 3791.28,1701.89 3784.61,1709.39 3773.5,1713C 3752.55,1721.33 3730.88,1726.99 3708.5,1730C 3685,1734.12 3661.34,1735.78 3637.5,1735C 3627.7,1732.19 3619.87,1726.69 3614,1718.5C 3613.33,1716.17 3613.33,1713.83 3614,1711.5C 3614.67,1710.42 3615.67,1709.75 3617,1709.5C 3676.54,1713.46 3734.71,1706.79 3791.5,1689.5 Z"/></g>
</svg>
