<?xml version="1.0" encoding="UTF-8"?>
<!DOCTYPE svg PUBLIC "-//W3C//DTD SVG 1.1//EN" "http://www.w3.org/Graphics/SVG/1.1/DTD/svg11.dtd">
<svg xmlns="http://www.w3.org/2000/svg" version="1.1" width="4508px" height="2315px" style="shape-rendering:geometricPrecision; text-rendering:geometricPrecision; image-rendering:optimizeQuality; fill-rule:evenodd; clip-rule:evenodd" xmlns:xlink="http://www.w3.org/1999/xlink">
<g><path style="opacity:1" fill="#040a24" d="M -0.5,-0.5 C 1502.17,-0.5 3004.83,-0.5 4507.5,-0.5C 4507.5,771.167 4507.5,1542.83 4507.5,2314.5C 4038.17,2314.5 3568.83,2314.5 3099.5,2314.5C 3099.45,2300.86 3097.45,2287.53 3093.5,2274.5C 3093.71,2273.91 3094.04,2273.41 3094.5,2273C 3188.04,2247.89 3276.71,2211.22 3360.5,2163C 3401.45,2138.07 3438.95,2108.57 3473,2074.5C 3491.36,2054.78 3507.03,2033.11 3520,2009.5C 3539.63,1997.21 3558.13,1983.37 3575.5,1968C 3590.6,1950.89 3606.44,1934.39 3623,1918.5C 3624.67,1916.17 3626.33,1913.83 3628,1911.5C 3629.87,1906.31 3628.21,1903.31 3623,1902.5C 3618.95,1904.2 3615.12,1906.37 3611.5,1909C 3594.45,1923.05 3577.12,1936.71 3559.5,1950C 3552,1957.5 3544.5,1965 3537,1972.5C 3538.86,1964.24 3540.86,1955.9 3543,1947.5C 3545.86,1928.55 3546.19,1909.55 3544,1890.5C 3542.5,1883.84 3539.67,1877.84 3535.5,1872.5C 3538.64,1921.6 3527.81,1967.26 3503,2009.5C 3480.77,2043.73 3453.61,2073.56 3421.5,2099C 3371.09,2136.05 3316.76,2166.72 3258.5,2191C 3158.98,2231.06 3056.98,2263.06 2952.5,2287C 2909.06,2296.25 2865.73,2305.42 2822.5,2314.5C 1881.5,2314.5 940.5,2314.5 -0.5,2314.5C -0.5,1542.83 -0.5,771.167 -0.5,-0.5 Z"/></g>
<g><path style="opacity:1" fill="#103486" d="M 2998.5,115.5 C 3056.02,112.779 3108.68,127.279 3156.5,159C 3175.78,172.611 3190.28,190.111 3200,211.5C 3202.69,219.642 3204.52,227.975 3205.5,236.5C 3223.11,244.606 3237.94,256.273 3250,271.5C 3289.44,321.479 3295.44,375.479 3268,433.5C 3257.74,455.699 3244.74,476.032 3229,494.5C 3228.21,462.426 3226.37,430.426 3223.5,398.5C 3214.84,397.175 3206.51,394.675 3198.5,391C 3180.48,382.574 3162.65,373.741 3145,364.5C 3109.94,391.939 3070.44,410.106 3026.5,419C 2996.22,422.245 2967.22,417.579 2939.5,405C 2917.94,394.643 2897.77,382.143 2879,367.5C 2859.38,395.416 2845.71,426.082 2838,459.5C 2834.91,476.551 2831.58,493.551 2828,510.5C 2818.12,502.927 2806.95,498.593 2794.5,497.5C 2785.57,498.092 2778.57,502.092 2773.5,509.5C 2751.68,459.219 2737.51,406.886 2731,352.5C 2730.33,338.833 2730.33,325.167 2731,311.5C 2733.64,285.033 2745.48,263.866 2766.5,248C 2762.35,241.844 2758.18,235.677 2754,229.5C 2753.33,228.5 2753.33,227.5 2754,226.5C 2802.07,194.704 2852.57,166.871 2905.5,143C 2935.41,129.635 2966.41,120.468 2998.5,115.5 Z"/></g>
<g><path style="opacity:1" fill="#040b25" d="M 3050.5,133.5 C 3058.29,133.707 3065.12,136.374 3071,141.5C 3072.88,151.57 3068.72,156.737 3058.5,157C 3056.17,157.667 3053.83,157.667 3051.5,157C 3047.06,154.443 3042.39,152.443 3037.5,151C 3032.36,146.111 3032.36,141.111 3037.5,136C 3041.17,135.667 3044.83,135.333 3048.5,135C 3049.42,134.722 3050.08,134.222 3050.5,133.5 Z"/></g>
<g><path style="opacity:1" fill="#040a24" d="M 2970.5,137.5 C 2981.17,137.333 2991.84,137.5 3002.5,138C 3007.47,141.531 3007.8,145.531 3003.5,150C 2968.44,158.907 2933.78,169.24 2899.5,181C 2887.95,186.275 2876.28,191.275 2864.5,196C 2858,196.812 2855.83,193.979 2858,187.5C 2860.59,185.451 2863.09,183.285 2865.5,181C 2877.5,174 2889.5,167 2901.5,160C 2923.1,147.742 2946.1,140.242 2970.5,137.5 Z"/></g>
<g><path style="opacity:1" fill="#040a25" d="M 2755.5,301.5 C 2757.53,301.338 2759.53,301.505 2761.5,302C 2762.13,302.75 2762.63,303.584 2763,304.5C 2761.8,317.443 2760.63,330.443 2759.5,343.5C 2761.52,369.265 2766.02,394.598 2773,419.5C 2778.2,432.585 2782.7,445.919 2786.5,459.5C 2786.13,465.369 2783.13,467.536 2777.5,466C 2741.4,420.319 2731.9,369.485 2749,313.5C 2750.4,309.025 2752.57,305.025 2755.5,301.5 Z"/></g>
<g><path style="opacity:1" fill="#103485" d="M 3132.5,467.5 C 3147.85,466.502 3162.85,468.335 3177.5,473C 3187.06,475.498 3189.06,480.831 3183.5,489C 3161.17,489.686 3138.83,490.353 3116.5,491C 3109.66,493.463 3102.66,494.796 3095.5,495C 3092.65,492.441 3091.82,489.274 3093,485.5C 3094.93,484.12 3096.76,482.62 3098.5,481C 3109.67,475.784 3121,471.284 3132.5,467.5 Z"/></g>
<g><path style="opacity:1" fill="#103485" d="M 2948.5,478.5 C 2970.54,477.013 2991.21,481.513 3010.5,492C 3013.37,495.943 3013.03,499.61 3009.5,503C 3006.17,503.167 3002.83,503.333 2999.5,503.5C 2976.52,501.789 2953.52,501.289 2930.5,502C 2923.12,504.191 2916.12,507.191 2909.5,511C 2902.95,511.786 2900.12,508.953 2901,502.5C 2908.67,493.734 2918.17,487.568 2929.5,484C 2935.91,481.985 2942.24,480.152 2948.5,478.5 Z"/></g>
<g><path style="opacity:1" fill="#103485" d="M 3116.5,501.5 C 3129.63,499.813 3139.13,504.813 3145,516.5C 3148.23,529.471 3144.07,539.304 3132.5,546C 3113.28,550.895 3102.28,543.561 3099.5,524C 3100.45,512.891 3106.11,505.391 3116.5,501.5 Z"/></g>
<g><path style="opacity:1" fill="#103485" d="M 2959.5,506.5 C 2980.1,505.271 2989.94,514.937 2989,535.5C 2983.24,549.8 2972.74,555.3 2957.5,552C 2944.64,545.086 2940.14,534.586 2944,520.5C 2947.49,513.834 2952.66,509.168 2959.5,506.5 Z"/></g>
<g><path style="opacity:1" fill="#103485" d="M 3059.5,528.5 C 3062.34,529.172 3064.84,530.505 3067,532.5C 3077.01,562.883 3084.68,593.883 3090,625.5C 3094.22,642.05 3090.05,655.883 3077.5,667C 3063.98,675.424 3049.65,682.258 3034.5,687.5C 3029.75,686.357 3028.25,683.357 3030,678.5C 3040.06,670.216 3050.89,663.049 3062.5,657C 3068.52,652.272 3071.02,646.105 3070,638.5C 3067.98,630.48 3065.98,622.48 3064,614.5C 3061.85,598.798 3059.52,583.131 3057,567.5C 3055.78,555.853 3055.45,544.186 3056,532.5C 3057.1,531.051 3058.27,529.718 3059.5,528.5 Z"/></g>
<g><path style="opacity:1" fill="#0963fb" d="M 2792.5,672.5 C 2793.69,676.389 2793.53,680.389 2792,684.5C 2748.36,784.569 2732.69,888.902 2745,997.5C 2763.08,976.739 2783.58,958.906 2806.5,944C 2821.27,935.022 2837.27,930.188 2854.5,929.5C 2861.02,929.337 2867.35,930.337 2873.5,932.5C 2874.17,932.167 2874.83,931.833 2875.5,931.5C 2829.76,863.956 2801.76,789.623 2791.5,708.5C 2791.67,704.833 2791.83,701.167 2792,697.5C 2792.42,696.328 2793.09,695.328 2794,694.5C 2797.48,700.457 2800.14,706.791 2802,713.5C 2816.42,782.977 2842.42,847.643 2880,907.5C 2902.62,939.79 2929.12,968.623 2959.5,994C 2970.01,1001.09 2980.34,1008.42 2990.5,1016C 3001.41,1021.71 3012.25,1027.54 3023,1033.5C 3083.27,1000.91 3133.27,956.575 3173,900.5C 3200.67,858.176 3217.67,811.842 3224,761.5C 3225.36,743.145 3226.69,724.811 3228,706.5C 3228.26,704.349 3229.26,702.682 3231,701.5C 3233.99,702.276 3236.83,703.443 3239.5,705C 3268.99,737.8 3289.83,775.633 3302,818.5C 3319.47,878.423 3316.8,937.423 3294,995.5C 3287.59,1002.11 3281.26,1002.11 3275,995.5C 3272,983.186 3269,970.852 3266,958.5C 3261.33,944.161 3254.33,931.161 3245,919.5C 3226.18,904.206 3206.68,903.539 3186.5,917.5C 3145.03,978.479 3091.36,1025.31 3025.5,1058C 3023.5,1058.67 3021.5,1058.67 3019.5,1058C 2979.62,1037.47 2944.12,1010.97 2913,978.5C 2904.83,969 2896.67,959.5 2888.5,950C 2879.72,947.055 2870.72,945.222 2861.5,944.5C 2844.72,945.371 2829.39,950.538 2815.5,960C 2786.33,981.17 2761.99,1006.84 2742.5,1037C 2735.1,1041.38 2729.27,1039.88 2725,1032.5C 2709.69,922.856 2723.03,816.856 2765,714.5C 2770.49,702.85 2776.49,691.517 2783,680.5C 2785.77,677.22 2788.94,674.554 2792.5,672.5 Z"/></g>
<g><path style="opacity:1" fill="#0963fb" d="M 2846.5,675.5 C 2850.3,676.779 2853.47,679.112 2856,682.5C 2876.66,722.645 2902.82,758.812 2934.5,791C 2956.02,810.769 2980.69,825.436 3008.5,835C 3072.63,850.961 3124.46,832.794 3164,780.5C 3177.07,761.039 3188.07,740.373 3197,718.5C 3199.02,716.316 3201.18,714.316 3203.5,712.5C 3206.36,716.733 3207.2,721.4 3206,726.5C 3196,769.122 3174.5,804.622 3141.5,833C 3098.39,863.908 3051.39,871.574 3000.5,856C 2967.99,843.657 2940.15,824.49 2917,798.5C 2887.97,766.469 2864.97,730.469 2848,690.5C 2846.75,685.58 2846.25,680.58 2846.5,675.5 Z"/></g>
<g><path style="opacity:1" fill="#103485" d="M 3117.5,697.5 C 3122.16,696.804 3126.33,697.804 3130,700.5C 3131.12,703.956 3130.29,706.79 3127.5,709C 3101.5,725.211 3073.17,731.544 3042.5,728C 3027.63,725.523 3012.97,722.189 2998.5,718C 2995.83,716.667 2993.17,715.333 2990.5,714C 2987.39,708.08 2989.22,704.58 2996,703.5C 3003.55,704.449 3011.05,705.616 3018.5,707C 3027.83,707.667 3037.17,707.667 3046.5,707C 3063.8,705.182 3081.14,703.515 3098.5,702C 3105.06,700.915 3111.39,699.415 3117.5,697.5 Z"/></g>
<g><path style="opacity:1" fill="#040a25" d="M 3239.5,722.5 C 3256.78,749.399 3270.61,778.066 3281,808.5C 3291.82,847.253 3294.49,886.586 3289,926.5C 3287.83,933.03 3286.16,939.363 3284,945.5C 3276.29,925.474 3263.79,909.307 3246.5,897C 3231.84,889.545 3216.84,888.711 3201.5,894.5C 3201.17,894.167 3200.83,893.833 3200.5,893.5C 3229.1,842.257 3241.77,787.257 3238.5,728.5C 3238.21,726.265 3238.54,724.265 3239.5,722.5 Z"/></g>
<g><path style="opacity:1" fill="#073ea1" d="M 3239.5,722.5 C 3238.54,724.265 3238.21,726.265 3238.5,728.5C 3237.37,726.034 3237.2,723.367 3238,720.5C 3238.72,721.044 3239.22,721.711 3239.5,722.5 Z"/></g>
<g><path style="opacity:1" fill="#103485" d="M 2443.5,858.5 C 2446.19,858.336 2448.85,858.503 2451.5,859C 2480.47,873.292 2504.63,893.458 2524,919.5C 2557.49,965.9 2581.83,1016.9 2597,1072.5C 2615.21,1137.95 2626.54,1204.62 2631,1272.5C 2634.54,1322.11 2636.04,1371.77 2635.5,1421.5C 2643.71,1421.18 2651.71,1421.68 2659.5,1423C 2737.54,1383.15 2819.21,1353.32 2904.5,1333.5C 2904.5,1341.5 2904.5,1349.5 2904.5,1357.5C 2848.27,1370.44 2793.6,1388.28 2740.5,1411C 2623.31,1462.39 2513.64,1525.73 2411.5,1601C 2400.03,1602.28 2395.19,1597.11 2397,1585.5C 2398.12,1583.38 2399.62,1581.54 2401.5,1580C 2467.96,1531.25 2537.63,1487.25 2610.5,1448C 2589.58,1450.73 2568.92,1455.06 2548.5,1461C 2521.23,1469.48 2494.23,1478.65 2467.5,1488.5C 2458.99,1486.48 2455.49,1481.15 2457,1472.5C 2458.12,1470.38 2459.62,1468.54 2461.5,1467C 2509.69,1446.29 2559.69,1432.12 2611.5,1424.5C 2613.69,1336.61 2607.85,1249.27 2594,1162.5C 2584.41,1105.38 2567.74,1050.38 2544,997.5C 2528.52,964.708 2508.36,935.208 2483.5,909C 2469.99,896.16 2454.82,885.66 2438,877.5C 2433.48,869.266 2435.31,862.932 2443.5,858.5 Z"/></g>
<g><path style="opacity:1" fill="#103485" d="M 3468.5,1249.5 C 3464.67,1262.28 3463.01,1275.28 3463.5,1288.5C 3462.88,1288.61 3462.38,1288.94 3462,1289.5C 3454.68,1345.57 3451.01,1401.91 3451,1458.5C 3450.63,1459.42 3450.13,1460.25 3449.5,1461C 3469.34,1470.75 3487.67,1482.75 3504.5,1497C 3510.6,1502.74 3512.1,1509.58 3509,1517.5C 3504.78,1524.78 3500.94,1532.28 3497.5,1540C 3506.72,1563 3513.72,1586.5 3518.5,1610.5C 3519.06,1624.6 3518.23,1638.6 3516,1652.5C 3512.06,1664.23 3504.89,1673.4 3494.5,1680C 3457.06,1697.16 3417.73,1706.82 3376.5,1709C 3363.5,1709.67 3350.5,1709.67 3337.5,1709C 3334.18,1708.06 3330.84,1707.22 3327.5,1706.5C 3327.95,1710.43 3326.62,1713.59 3323.5,1716C 3292.92,1731.29 3262.92,1747.62 3233.5,1765C 2962.19,1928.65 2692.86,2095.31 2425.5,2265C 2418.71,2267.99 2413.21,2266.49 2409,2260.5C 2406.08,2253.49 2407.91,2247.99 2414.5,2244C 2551.33,2158.08 2688.33,2072.42 2825.5,1987C 2824.58,1986.72 2823.92,1986.22 2823.5,1985.5C 2828.24,1985.46 2832.24,1983.79 2835.5,1980.5C 2883.81,1950.68 2932.14,1920.84 2980.5,1891C 2953.23,1894.46 2925.9,1897.79 2898.5,1901C 2799.01,1909.42 2699.34,1914.76 2599.5,1917C 2567.17,1917.67 2534.83,1917.67 2502.5,1917C 2500,1915.83 2498.17,1914 2497,1911.5C 2494.36,1901.92 2497.86,1896.42 2507.5,1895C 2615.28,1893.93 2722.94,1889.93 2830.5,1883C 2896.34,1878.56 2961.67,1870.23 3026.5,1858C 3031.36,1856.2 3036.36,1854.87 3041.5,1854C 3119.84,1805.16 3199.17,1757.82 3279.5,1712C 3289.71,1706.4 3300.04,1701.06 3310.5,1696C 3303.78,1690.78 3298.78,1684.28 3295.5,1676.5C 3294.67,1676.17 3293.83,1675.83 3293,1675.5C 3283.08,1678.47 3273.25,1681.64 3263.5,1685C 3245.21,1690.51 3226.55,1692.51 3207.5,1691C 3190.03,1683.61 3183.87,1670.77 3189,1652.5C 3190.91,1648.1 3193.41,1644.1 3196.5,1640.5C 3182.54,1613.84 3187.21,1591.01 3210.5,1572C 3238.56,1552.81 3269.23,1539.31 3302.5,1531.5C 3303.64,1528.53 3305.64,1526.36 3308.5,1525C 3299.56,1514.84 3295.39,1503.01 3296,1489.5C 3297.65,1483.87 3300.81,1479.37 3305.5,1476C 3321.15,1469.34 3337.48,1465.34 3354.5,1464C 3379.16,1462.15 3403.83,1460.32 3428.5,1458.5C 3426.74,1329.39 3445.08,1203.22 3483.5,1080C 3500.3,1027.92 3523.13,978.75 3552,932.5C 3556.33,926.5 3560.67,920.5 3565,914.5C 3571.04,906.454 3578.04,905.454 3586,911.5C 3588.24,914.881 3588.91,918.548 3588,922.5C 3557.41,965.671 3533.08,1012.34 3515,1062.5C 3493.32,1123.55 3477.82,1185.88 3468.5,1249.5 Z"/></g>
<g><path style="opacity:1" fill="#0963fb" d="M 2409.5,1075.5 C 2452.58,1085.37 2492.24,1102.87 2528.5,1128C 2558.18,1151.35 2581.68,1179.85 2599,1213.5C 2599.5,1216.53 2599.33,1219.53 2598.5,1222.5C 2595.35,1222.79 2592.35,1222.29 2589.5,1221C 2552.85,1175.67 2509.52,1138.34 2459.5,1109C 2443.07,1100.79 2426.41,1093.12 2409.5,1086C 2404.36,1082.22 2404.36,1078.72 2409.5,1075.5 Z"/></g>
<g><path style="opacity:1" fill="#0963fb" d="M 3463.5,1288.5 C 3463.01,1275.28 3464.67,1262.28 3468.5,1249.5C 3477.33,1222.82 3491.5,1199.49 3511,1179.5C 3525.95,1164.88 3541.78,1151.38 3558.5,1139C 3562.48,1135.58 3566.82,1134.92 3571.5,1137C 3572.59,1139.06 3572.76,1141.23 3572,1143.5C 3556.96,1157.54 3542.96,1172.54 3530,1188.5C 3507.32,1219.18 3487.65,1251.84 3471,1286.5C 3468.7,1287.87 3466.2,1288.53 3463.5,1288.5 Z"/></g>
<g><path style="opacity:1" fill="#0964fc" d="M 3398.5,1211.5 C 3415.85,1209.03 3424.01,1216.36 3423,1233.5C 3419.98,1241.44 3414.15,1245.61 3405.5,1246C 3243.5,1265.17 3081.5,1284.33 2919.5,1303.5C 2907.47,1301.13 2901.97,1293.8 2903,1281.5C 2905.17,1275.33 2909.33,1271.17 2915.5,1269C 3076.63,1249.82 3237.63,1230.66 3398.5,1211.5 Z"/></g>
<g><path style="opacity:1" fill="#0963fc" d="M 3160.5,1365.5 C 3183.84,1363.02 3195.68,1373.36 3196,1396.5C 3191.83,1411 3182.16,1418.33 3167,1418.5C 3145.26,1415.4 3136.92,1403.07 3142,1381.5C 3145.89,1373.48 3152.05,1368.15 3160.5,1365.5 Z"/></g>
<g><path style="opacity:1" fill="#040a24" d="M 3422.5,1475.5 C 3431.82,1474.63 3440.82,1475.79 3449.5,1479C 3462.04,1486.22 3474.04,1494.22 3485.5,1503C 3488.02,1505.35 3490.35,1507.85 3492.5,1510.5C 3489.22,1517.41 3485.22,1523.75 3480.5,1529.5C 3425.71,1513.21 3370.38,1511.21 3314.5,1523.5C 3311.35,1514.39 3309.02,1505.05 3307.5,1495.5C 3307.35,1490.97 3309.35,1487.8 3313.5,1486C 3327.24,1482.29 3341.24,1479.95 3355.5,1479C 3377.96,1477.26 3400.3,1476.09 3422.5,1475.5 Z"/></g>
<g><path style="opacity:1" fill="#040a24" d="M 3309.5,1537.5 C 3350.64,1538.75 3391.81,1538.75 3433,1537.5C 3438.5,1537.67 3444,1537.83 3449.5,1538C 3459.44,1539.92 3469.44,1541.42 3479.5,1542.5C 3484.85,1557.89 3489.19,1573.56 3492.5,1589.5C 3474.9,1584.55 3456.9,1581.72 3438.5,1581C 3394.41,1579.08 3351.41,1585.08 3309.5,1599C 3277.26,1608.91 3245.93,1621.08 3215.5,1635.5C 3202.53,1615.51 3205.2,1598.01 3223.5,1583C 3247.5,1566 3273.5,1552.67 3301.5,1543C 3304.41,1541.39 3307.07,1539.56 3309.5,1537.5 Z"/></g>
<g><path style="opacity:1" fill="#103485" d="M 3518.5,1610.5 C 3517.88,1599.79 3522.88,1594.79 3533.5,1595.5C 3565.97,1598.38 3595.97,1608.55 3623.5,1626C 3637.13,1635.96 3648.3,1648.13 3657,1662.5C 3658.66,1673.84 3653.83,1679 3642.5,1678C 3640.7,1677.03 3639.03,1675.86 3637.5,1674.5C 3624.39,1654.09 3606.39,1639.59 3583.5,1631C 3564.41,1623.91 3544.74,1619.25 3524.5,1617C 3522.27,1614.94 3520.27,1612.77 3518.5,1610.5 Z"/></g>
<g><path style="opacity:1" fill="#040a24" d="M 3427.5,1600.5 C 3450.57,1600.2 3473.57,1601.2 3496.5,1603.5C 3497.31,1611.14 3497.65,1618.8 3497.5,1626.5C 3464.42,1632.17 3431.09,1635.34 3397.5,1636C 3375.86,1638.94 3354.2,1641.61 3332.5,1644C 3325.25,1645.12 3318.08,1646.62 3311,1648.5C 3308.21,1647.48 3305.38,1647.32 3302.5,1648C 3279.58,1657.98 3255.91,1665.65 3231.5,1671C 3224.83,1671.67 3218.17,1671.67 3211.5,1671C 3207.38,1668.25 3205.88,1664.42 3207,1659.5C 3209.67,1653.79 3213.5,1649.13 3218.5,1645.5C 3246.27,1636.63 3274.27,1628.47 3302.5,1621C 3343.95,1612.01 3385.61,1605.17 3427.5,1600.5 Z"/></g>
<g><path style="opacity:1" fill="#103485" d="M 2898.5,1607.5 C 2899.82,1617.67 2899.82,1628.01 2898.5,1638.5C 2773.31,1740.82 2636.31,1824.98 2487.5,1891C 2475.26,1894.11 2469.76,1889.27 2471,1876.5C 2472.14,1874.39 2473.64,1872.56 2475.5,1871C 2617.78,1807.75 2749.45,1728.08 2870.5,1632C 2880.03,1623.97 2889.36,1615.8 2898.5,1607.5 Z"/></g>
<g><path style="opacity:1" fill="#040a24" d="M 3494.5,1640.5 C 3495.38,1640.37 3496.04,1640.7 3496.5,1641.5C 3494.28,1652.89 3487.61,1660.39 3476.5,1664C 3455.55,1672.33 3433.88,1677.99 3411.5,1681C 3388,1685.12 3364.34,1686.78 3340.5,1686C 3330.7,1683.19 3322.87,1677.69 3317,1669.5C 3316.33,1667.17 3316.33,1664.83 3317,1662.5C 3317.67,1661.42 3318.67,1660.75 3320,1660.5C 3379.54,1664.46 3437.71,1657.79 3494.5,1640.5 Z"/></g>
<g><path style="opacity:1" fill="#0963fb" d="M 3099.5,2314.5 C 3094.17,2314.5 3088.83,2314.5 3083.5,2314.5C 3083.6,2302.12 3082.93,2289.79 3081.5,2277.5C 3057.16,2283.17 3032.83,2289 3008.5,2295C 2994.05,2300.73 2980.05,2307.23 2966.5,2314.5C 2952.17,2314.5 2937.83,2314.5 2923.5,2314.5C 2923.92,2313.78 2924.58,2313.28 2925.5,2313C 2922.64,2312.81 2919.97,2313.31 2917.5,2314.5C 2885.83,2314.5 2854.17,2314.5 2822.5,2314.5C 2865.73,2305.42 2909.06,2296.25 2952.5,2287C 3056.98,2263.06 3158.98,2231.06 3258.5,2191C 3316.76,2166.72 3371.09,2136.05 3421.5,2099C 3453.61,2073.56 3480.77,2043.73 3503,2009.5C 3527.81,1967.26 3538.64,1921.6 3535.5,1872.5C 3539.67,1877.84 3542.5,1883.84 3544,1890.5C 3546.19,1909.55 3545.86,1928.55 3543,1947.5C 3540.86,1955.9 3538.86,1964.24 3537,1972.5C 3544.5,1965 3552,1957.5 3559.5,1950C 3577.12,1936.71 3594.45,1923.05 3611.5,1909C 3615.12,1906.37 3618.95,1904.2 3623,1902.5C 3628.21,1903.31 3629.87,1906.31 3628,1911.5C 3626.33,1913.83 3624.67,1916.17 3623,1918.5C 3606.44,1934.39 3590.6,1950.89 3575.5,1968C 3558.13,1983.37 3539.63,1997.21 3520,2009.5C 3507.03,2033.11 3491.36,2054.78 3473,2074.5C 3438.95,2108.57 3401.45,2138.07 3360.5,2163C 3276.71,2211.22 3188.04,2247.89 3094.5,2273C 3094.04,2273.41 3093.71,2273.91 3093.5,2274.5C 3097.45,2287.53 3099.45,2300.86 3099.5,2314.5 Z"/></g>
<g><path style="opacity:1" fill="#0962fa" d="M 2835.5,1980.5 C 2832.24,1983.79 2828.24,1985.46 2823.5,1985.5C 2782.31,1976.63 2741.31,1966.79 2700.5,1956C 2697.57,1952.3 2697.91,1948.97 2701.5,1946C 2705.1,1945.03 2708.76,1944.53 2712.5,1944.5C 2727.14,1945.95 2741.81,1947.11 2756.5,1948C 2780.48,1950.77 2803.15,1957.77 2824.5,1969C 2828.09,1971.38 2831.59,1973.88 2835,1976.5C 2835.49,1977.79 2835.66,1979.13 2835.5,1980.5 Z"/></g>
<g><path style="opacity:1" fill="#040b25" d="M 3083.5,2314.5 C 3044.5,2314.5 3005.5,2314.5 2966.5,2314.5C 2980.05,2307.23 2994.05,2300.73 3008.5,2295C 3032.83,2289 3057.16,2283.17 3081.5,2277.5C 3082.93,2289.79 3083.6,2302.12 3083.5,2314.5 Z"/></g>
<g><path style="opacity:1" fill="#072460" d="M 2923.5,2314.5 C 2921.5,2314.5 2919.5,2314.5 2917.5,2314.5C 2919.97,2313.31 2922.64,2312.81 2925.5,2313C 2924.58,2313.28 2923.92,2313.78 2923.5,2314.5 Z"/></g>
</svg>
